<?xml version="1.0" encoding="UTF-8"?>
<svg version="1.1" xmlns="http://www.w3.org/2000/svg" width="90" height="90">
<path d="M0 0 C2.59222222 1.17829179 5.11601243 2.45205285 7.64492798 3.76062012 C8.56867218 4.22673706 9.49241638 4.692854 10.44415283 5.1730957 C13.38410454 6.65982196 16.31525497 8.16304393 19.24649048 9.66687012 C21.24202605 10.67968939 23.23811406 11.69142099 25.23477173 12.70202637 C30.12015113 15.17773694 34.99841636 17.66703333 39.87149048 20.16687012 C39.87149048 22.14687012 39.87149048 24.12687012 39.87149048 26.16687012 C34.00845338 29.1745477 28.13602885 32.16324678 22.25674438 35.13903809 C20.25844556 36.15325982 18.26232339 37.17178221 16.26846313 38.19470215 C13.39959199 39.66558825 10.52320948 41.12075292 7.64492798 42.57312012 C6.75719696 43.03246948 5.86946594 43.49181885 4.95483398 43.96508789 C-3.29471786 48.09208805 -3.29471786 48.09208805 -8.12850952 47.16687012 C-11.50050328 45.84702224 -14.68782638 44.23624132 -17.90194702 42.57312012 C-18.82569122 42.10700317 -19.74943542 41.64088623 -20.70117188 41.16064453 C-23.64112358 39.67391828 -26.57227402 38.1706963 -29.50350952 36.66687012 C-31.49904509 35.65405085 -33.4951331 34.64231925 -35.49179077 33.63171387 C-40.37717018 31.15600329 -45.2554354 28.6667069 -50.12850952 26.16687012 C-50.12850952 24.18687012 -50.12850952 22.20687012 -50.12850952 20.16687012 C-44.26547243 17.15919253 -38.3930479 14.17049345 -32.51376343 11.19470215 C-30.51546461 10.18048041 -28.51934243 9.16195803 -26.52548218 8.13903809 C-23.65661103 6.66815198 -20.78022852 5.21298731 -17.90194702 3.76062012 C-17.014216 3.30127075 -16.12648499 2.84192139 -15.21185303 2.36865234 C-5.87806195 -2.30075976 -5.87806195 -2.30075976 0 0 Z " fill="#FFBC38" transform="translate(50.128509521484375,9.8331298828125)"/>
<path d="M0 0 C3.08367051 1.45762113 6.16687672 2.91622178 9.25 4.375 C10.12269531 4.7875 10.99539062 5.2 11.89453125 5.625 C12.73886719 6.02460937 13.58320313 6.42421875 14.453125 6.8359375 C15.22817383 7.20251465 16.00322266 7.5690918 16.80175781 7.94677734 C18.23785389 8.63484026 19.659731 9.35363643 21.06323242 10.10595703 C24.39351968 11.64327103 27.46908877 11.6197915 31 11 C34.97580697 9.46479455 38.68541183 7.51331561 42.4375 5.5 C44.41476936 4.4676092 46.39260207 3.43629638 48.37109375 2.40625 C49.6693811 1.71499023 49.6693811 1.71499023 50.99389648 1.00976562 C53 0 53 0 54 0 C54.1358035 2.71003427 54.23444624 5.41318941 54.3125 8.125 C54.35439453 8.88554688 54.39628906 9.64609375 54.43945312 10.4296875 C54.52710523 14.49674504 54.32086747 17.1640214 51.734375 20.41015625 C49.4524859 22.57143121 47.76340634 24.03719038 44.9375 25.3125 C44.28652344 25.61800781 43.63554688 25.92351562 42.96484375 26.23828125 C37.77014438 28.25213091 32.82031913 28.21771974 27.3125 28.25 C26.45205078 28.270625 25.59160156 28.29125 24.70507812 28.3125 C17.19449462 28.35777857 9.68086701 27.27696875 4 21.9375 C3.443125 21.43089844 2.88625 20.92429687 2.3125 20.40234375 C-0.92564492 16.9425401 -0.10937364 12.81717871 -0.0625 8.375 C-0.05798828 7.57320312 -0.05347656 6.77140625 -0.04882812 5.9453125 C-0.03703168 3.96350994 -0.01909605 1.98174567 0 0 Z " fill="#FFBD38" transform="translate(18,50)"/>
<path d="M0 0 C0.01981934 0.86802246 0.03963867 1.73604492 0.06005859 2.63037109 C0.13809872 5.84726267 0.22478881 9.06377045 0.31738281 12.28027344 C0.35569327 13.67308572 0.39054259 15.06599765 0.421875 16.45898438 C0.46747907 18.45986308 0.52651623 20.46042146 0.5859375 22.4609375 C0.6173584 23.66540527 0.6487793 24.86987305 0.68115234 26.11083984 C0.70915226 29.1260018 0.70915226 29.1260018 3 31 C3.82899624 37.86882601 2.07335597 41.53006483 -2 47 C-5.5841442 45.80528527 -6.45079804 44.30364464 -8.20703125 41.046875 C-9.56695671 37.53652554 -9.37973704 34.73408093 -9 31 C-8.34 30.34 -7.68 29.68 -7 29 C-6.62760773 26.18597317 -6.62760773 26.18597317 -6.5859375 22.8984375 C-6.54726562 21.68671875 -6.50859375 20.475 -6.46875 19.2265625 C-6.4378125 17.95554687 -6.406875 16.68453125 -6.375 15.375 C-6.33632812 14.09625 -6.29765625 12.8175 -6.2578125 11.5 C-6.16328951 8.33347983 -6.07773643 5.1669696 -6 2 C-2.25 0 -2.25 0 0 0 Z " fill="#FFBC38" transform="translate(87,43)"/>
</svg>
